# xmcd
#
# Track frame offsets: 
#        150
#        6212
#        21544
#        39116
#        53934
#        78566
#        120534
#        139462
#        156910
#        169957
#
# Disc length: 2505 seconds
#
# Revision: 0
# Processed by: cddbd v1.5.2PL0 Copyright (c) Steve Scherf et al.
# Submitted via: ExactAudioCopy v0.95b4
#
DISCID=8409c70a
DTITLE=Mediva - Viva Mediva
DYEAR=2000
DGENRE=Classical
TTITLE0=Ivo Bene
TTITLE1=Adiu. Adiu, Dous Dame
TTITLE2=Belicha
TTITLE3=O Rosa Bella
TTITLE4=Amor mi fa Cantar
TTITLE5=Virgen Madre Gloriosa
TTITLE6=Tod' Aqueste
TTITLE7=Ondas da Mar
TTITLE8=Mandad' ei Comigo
TTITLE9=Mui Grandes Noit' e Dia
EXTD=
EXTT0=
EXTT1=
EXTT2=
EXTT3=
EXTT4=
EXTT5=
EXTT6=
EXTT7=
EXTT8=
EXTT9=
PLAYORDER=
